<svg width="122" height="50" viewBox="0 0 122 50" fill="none" xmlns="http://www.w3.org/2000/svg">
<path fill="#7BAED2" opacity="1.000000" stroke="none" 
	d="
M350.000000,1.000000 
	C364.020905,1.000000 378.041779,1.000000 392.773376,1.344415 
	C402.743530,2.537353 412.049500,3.043618 421.254089,4.295589 
	C455.185425,8.910803 488.088196,17.381145 519.734192,30.680281 
	C576.832275,54.675591 625.525940,90.114525 664.993286,137.829819 
	C714.371399,197.527054 742.321960,266.179352 749.229614,343.373749 
	C749.726257,348.924194 750.405579,354.458313 751.000000,360.000000 
	C751.000000,371.354218 751.000000,382.708466 750.692627,394.809875 
	C747.703979,415.775177 746.081360,436.203674 742.114136,456.166199 
	C734.603455,493.958008 720.347046,529.415283 701.105347,562.794312 
	C672.119263,613.076904 633.899170,654.724792 584.811218,686.049133 
	C583.336609,686.990112 580.979065,686.547485 579.164551,686.384888 
	C578.748779,684.551025 578.413757,682.955566 577.623413,681.631958 
	C557.139465,647.327515 536.604553,613.053467 516.086487,578.769348 
	C505.757050,561.509521 495.443390,544.240295 485.048523,526.851379 
	C487.932220,524.393677 490.586365,522.142456 493.228973,519.877808 
	C563.420715,459.724762 573.360168,377.237732 549.377014,310.831726 
	C520.835266,231.803589 436.841919,182.033035 352.210999,192.793381 
	C261.791199,204.289749 193.138123,280.174744 191.045776,371.016876 
	C189.849609,422.950195 208.501617,467.305542 242.884369,505.516418 
	C248.544724,511.806946 254.789352,517.571716 260.810608,523.626404 
	C260.059967,525.162048 259.447327,526.520813 258.746979,527.832825 
	C238.289215,566.156677 217.791092,604.459106 197.373184,642.804199 
	C189.244980,658.069031 181.290985,673.426636 172.897385,688.846436 
	C171.067261,688.212708 169.534393,687.577332 168.136902,686.721008 
	C139.066925,668.907898 113.821976,646.616089 91.540855,620.917908 
	C65.588577,590.985718 45.160950,557.611206 29.888021,521.070984 
	C15.418713,486.453369 6.160844,450.528503 2.758540,413.123871 
	C2.359085,408.732269 1.595031,404.373810 1.000000,400.000000 
	C1.000000,384.645782 1.000000,369.291534 1.306152,353.191956 
	C4.334643,333.063171 6.176411,313.505371 9.972661,294.334625 
	C16.735886,260.180847 29.269064,227.978043 46.176922,197.526245 
	C65.872749,162.053162 90.600449,130.547516 120.336891,102.888931 
	C150.813126,74.542252 184.816620,51.540985 222.609055,34.168907 
	C259.153809,17.370354 297.369751,6.614643 337.494781,2.883783 
	C341.685333,2.494142 345.832642,1.639107 350.000000,1.000000 
M447.294464,121.933311 
	C435.097351,118.092720 422.907227,114.229752 410.696808,110.431908 
	C408.467529,109.738525 407.031952,109.152054 407.325775,106.069511 
	C408.613556,92.560280 409.528961,79.015533 410.622620,64.926849 
	C407.690887,64.587044 405.048706,64.280792 402.162567,63.946274 
	C399.055176,81.049911 396.045990,97.358276 393.157074,113.687912 
	C392.404358,117.942711 394.803802,121.401848 399.632172,122.047981 
	C415.731445,124.202400 431.878113,126.002518 448.690002,128.248062 
	C459.013733,132.762482 469.206604,137.615479 479.706970,141.672806 
	C486.754944,144.396118 494.197235,146.154068 501.543793,148.027588 
	C505.518768,149.041290 507.923828,147.271973 507.858368,142.435532 
	C506.456451,141.718307 504.878998,140.850235 503.251678,140.088699 
	C493.319122,135.440674 483.467773,130.600693 473.391113,126.287872 
	C469.163605,124.478508 468.623932,122.463890 470.156464,118.366386 
	C473.412811,109.659973 476.139008,100.754898 479.065155,91.925507 
	C480.349487,88.050072 481.591278,84.160522 482.966583,79.925781 
	C480.251862,79.137276 478.085205,78.507950 475.595184,77.784714 
	C472.270813,85.012321 469.030731,91.908859 465.917328,98.862114 
	C461.795319,108.067955 457.020294,116.741577 447.294464,121.933311 
M302.754669,109.837166 
	C303.638672,115.514099 304.522705,121.191032 305.382538,126.712448 
	C313.543121,127.193527 313.433044,127.185196 313.993805,119.776901 
	C314.438202,113.906013 315.195374,108.058800 315.869537,101.671852 
	C330.522583,107.698280 344.325958,113.375267 358.824005,119.337944 
	C361.149353,110.469604 352.127289,107.959679 350.706421,102.640991 
	C352.968842,97.221848 355.690643,92.377991 357.026550,87.178093 
	C360.577545,73.355797 353.888397,64.137962 339.822113,65.151093 
	C326.492584,66.111160 313.304047,69.212982 300.123047,71.736404 
	C298.941956,71.962509 297.318329,74.985565 297.517700,76.496155 
	C298.951752,87.359962 300.803864,98.168587 302.754669,109.837166 
M644.856323,215.853897 
	C640.232544,208.744202 636.007141,201.323074 630.804016,194.666183 
	C628.469666,191.679565 624.254150,188.560074 620.759827,188.400497 
	C612.164978,188.007950 605.472351,193.072495 601.199646,200.174484 
	C597.725037,205.949875 600.410645,211.526901 604.021179,216.816452 
	C609.129944,224.301010 613.695068,232.156601 618.483093,239.838394 
	C611.138611,244.470917 611.135376,244.471130 606.883606,238.338120 
	C605.935669,236.970764 604.998230,235.596115 604.053284,234.226669 
	C597.291748,224.427612 590.529480,214.629044 583.167908,203.961517 
	C582.969299,208.129532 582.418945,211.252869 582.763245,214.274277 
	C583.406921,219.922028 583.450867,226.035156 585.778748,231.000916 
	C589.273682,238.455902 594.298279,245.247131 599.092712,252.023163 
	C603.097473,257.683167 608.495422,259.011749 614.923828,256.359802 
	C617.657288,255.232117 620.275879,253.649338 622.661377,251.887222 
	C630.200500,246.318283 631.653015,240.708191 627.192261,232.445084 
	C623.962524,226.462387 620.148865,220.774734 616.323181,215.140503 
	C613.370239,210.791641 613.265808,206.603638 615.750793,202.056808 
	C620.465271,202.194290 623.988464,203.503754 626.262146,208.140579 
	C630.432800,216.646118 635.251282,224.831482 639.629395,233.239059 
	C641.138245,236.136642 642.909973,237.772018 647.733765,236.070358 
	C646.909241,229.785477 646.042053,223.175339 644.856323,215.853897 
M609.935913,585.443787 
	C615.044922,579.305969 620.289429,573.274414 625.213745,566.991821 
	C628.337158,563.006958 629.740845,558.252197 627.554260,553.413147 
	C624.446594,546.535583 619.017517,541.808411 611.666443,540.131287 
	C604.452820,538.485596 600.030151,543.132080 595.762451,548.210693 
	C589.945923,555.132629 583.659668,561.659790 577.331482,568.624084 
	C572.348694,561.767578 573.560242,555.552002 577.350403,550.220032 
	C582.238159,543.343933 588.083069,537.146973 593.539185,530.677246 
	C594.632080,529.381287 595.830261,528.173950 597.419495,526.448547 
	C588.736328,526.447083 581.631470,527.758179 576.463013,534.362061 
	C571.952942,540.124634 566.746094,545.385559 562.657288,551.417358 
	C560.282654,554.920471 557.819336,559.741211 558.351318,563.557007 
	C559.552307,572.170166 566.205017,577.257324 574.071106,579.982666 
	C580.777039,582.306030 585.385681,578.126038 589.435852,573.363708 
	C595.515991,566.214355 601.633728,559.097107 607.735474,551.966187 
	C608.300415,552.100525 608.865356,552.234863 609.430298,552.369202 
	C609.430298,556.038330 609.806458,559.755127 609.348694,563.366272 
	C608.504761,570.024231 604.015137,574.609741 599.563171,579.190796 
	C595.728516,583.136536 592.138123,587.319641 588.058838,591.817688 
	C597.042236,594.145447 602.957703,592.324585 609.935913,585.443787 
M107.062836,441.889801 
	C100.218544,425.460999 100.499725,410.046722 115.594299,395.940521 
	C111.397324,396.469940 109.248619,396.577026 107.175354,397.029663 
	C95.351402,399.611115 83.398766,401.761871 71.782494,405.082611 
	C63.387375,407.482574 59.953442,414.533691 61.293159,423.128174 
	C61.523422,424.605408 61.671001,426.107025 62.045425,427.548401 
	C64.498299,436.990784 65.486824,446.907471 71.219238,455.287201 
	C73.235069,458.233978 75.762062,459.413452 79.298805,458.853058 
	C94.056076,456.514984 108.818665,454.208130 123.595688,451.999390 
	C126.108368,451.623810 127.244598,450.731445 126.528625,448.097321 
	C126.105354,446.540009 125.865395,444.932922 125.520126,443.235809 
	C119.484444,442.834320 113.700142,442.449585 107.062836,441.889801 
M84.939568,287.262299 
	C87.080376,277.574799 89.321213,267.907166 91.253227,258.178192 
	C91.540230,256.732941 90.724205,253.943909 89.797478,253.634094 
	C88.231842,253.110687 85.369637,253.421036 84.466759,254.531067 
	C81.768143,257.848846 78.991333,261.460144 77.617805,265.431610 
	C73.510925,277.306335 70.058304,289.407349 66.212158,301.867279 
	C84.547371,307.799561 102.766449,313.694275 120.982758,319.588104 
	C123.365753,312.764374 125.614082,306.876068 127.473724,300.867432 
	C130.020004,292.640198 132.658188,284.407837 134.528473,276.015350 
	C136.077774,269.063263 135.033768,268.230042 127.382736,267.302185 
	C122.573830,279.699799 117.727287,292.194458 112.792892,304.915588 
	C110.334686,304.313141 108.339630,303.824188 106.349373,303.336426 
	C107.309647,292.366211 108.336044,281.968872 108.993782,271.548248 
	C109.082069,270.149506 107.638939,267.951416 106.328217,267.319183 
	C103.898819,266.147339 102.473038,267.718658 101.789917,270.274017 
	C100.976273,273.317566 99.882584,276.298004 98.739174,279.239319 
	C96.204514,285.759491 92.387924,291.304749 86.310349,295.502716 
	C85.812729,292.712402 85.405228,290.427460 84.939568,287.262299 
M639.907959,496.396973 
	C642.071350,494.951385 644.234741,493.505798 646.457703,492.020386 
	C649.897278,498.233459 649.073975,503.918091 646.592346,509.662354 
	C643.578491,516.638428 640.702942,523.674316 637.613647,531.051880 
	C640.229004,532.237732 642.421265,533.231689 645.047424,534.422485 
	C652.974548,519.118286 660.718384,504.167877 668.673096,488.810486 
	C657.392822,483.296417 646.824829,478.073242 636.199524,472.969574 
	C632.761169,471.318024 629.280396,469.566559 625.623108,468.609741 
	C621.620972,467.562775 616.541687,466.838135 614.259888,470.976898 
	C607.220825,483.744476 600.876587,496.895172 594.361694,509.701904 
	C601.344177,515.659546 601.664124,515.599060 605.528748,508.942291 
	C610.704224,500.027618 615.822571,491.075745 621.249268,482.315674 
	C622.009705,481.088104 624.382080,480.859039 626.008301,480.167786 
	C626.612854,481.672668 627.989075,483.351318 627.695801,484.654083 
	C625.882324,492.709595 624.062805,500.800446 621.518372,508.643738 
	C619.250793,515.633484 618.965149,515.767395 625.931519,517.765564 
	C630.425842,510.795013 634.906738,503.845367 639.907959,496.396973 
M673.194397,467.978333 
	C675.111816,465.742920 677.838013,463.806976 678.797180,461.216705 
	C681.844666,452.986572 684.980896,444.662506 686.699951,436.097198 
	C689.214172,423.570160 685.210754,416.804047 673.058838,412.614105 
	C664.633484,409.709045 655.642761,408.483368 647.095398,405.880707 
	C639.729187,403.637695 634.228088,405.918518 628.805481,411.633362 
	C634.259888,413.918304 639.320862,416.270081 644.553040,418.144104 
	C647.725586,419.280396 648.526550,420.978333 647.841553,424.125092 
	C645.972107,432.713593 644.355957,441.357025 642.524414,449.954132 
	C641.405212,455.207428 641.653564,460.518860 646.432800,463.397949 
	C654.346985,468.165588 663.049866,470.770782 673.194397,467.978333 
M662.659058,333.985901 
	C651.358887,335.072723 640.121948,336.384521 628.804565,343.081055 
	C635.274963,345.026520 640.400757,346.304932 645.291138,348.193268 
	C646.820251,348.783691 648.582520,350.928009 648.749817,352.517670 
	C649.514893,359.788666 649.600098,367.128662 650.245728,374.415894 
	C650.539978,377.735901 649.293457,379.151154 646.252380,380.107635 
	C640.667664,381.864166 635.211243,384.028473 629.701294,386.022827 
	C629.733398,386.469482 629.765503,386.916138 629.797607,387.362793 
	C636.931152,388.822693 644.029785,391.246399 651.206848,391.506744 
	C660.917175,391.858948 670.733154,390.936523 680.413330,389.794067 
	C685.353394,389.210999 688.221191,385.496887 687.815247,380.118286 
	C687.090637,370.518890 687.325134,360.699646 685.296875,351.377380 
	C681.314270,333.072418 684.834290,333.784637 662.659058,333.985901 
M297.022827,128.489059 
	C297.243896,127.906601 297.817749,127.161659 297.635132,126.765190 
	C291.101807,112.581490 284.643738,98.359169 277.797058,84.326698 
	C276.163086,80.977768 273.199432,78.277611 270.179321,74.427429 
	C269.682312,78.145470 269.217926,80.434883 269.092560,82.742699 
	C267.998749,102.877762 265.462036,105.997681 246.450195,112.126862 
	C242.480286,113.406715 240.357529,112.359039 238.100327,109.291214 
	C234.708496,104.681313 230.940369,100.348274 227.228241,95.769249 
	C224.306213,98.536186 220.513657,99.688293 222.790146,104.551697 
	C229.492447,118.870171 235.861755,133.344528 242.357925,147.759445 
	C243.280090,149.805725 244.044373,151.685181 247.102402,150.544754 
	C249.704346,149.574448 251.570465,148.684753 251.039261,145.362503 
	C250.200394,140.116058 249.699142,134.816452 248.924911,129.558517 
	C248.475830,126.508644 249.264221,124.749535 252.446442,123.528488 
	C259.119995,120.967789 265.628082,117.955200 272.112640,114.931923 
	C275.093292,113.542274 277.138367,113.566238 279.326569,116.521606 
	C283.246735,121.816078 287.643036,126.757996 291.880981,131.896530 
	C293.693542,130.728806 295.083466,129.833374 297.022827,128.489059 
M98.102707,354.936035 
	C98.375183,353.805359 98.647690,352.674683 98.920120,351.544006 
	C102.365196,337.245911 101.419838,334.968262 88.795044,327.182190 
	C88.088028,326.746155 87.382614,326.295410 86.634300,325.940369 
	C77.904106,321.798187 64.342087,326.743408 63.188648,334.930359 
	C61.112301,349.668060 59.629097,364.489319 57.849331,379.692322 
	C75.714600,380.783600 92.755875,381.885101 109.805588,382.835236 
	C116.318474,383.198151 116.805412,382.520508 116.540863,375.543976 
	C99.816086,371.906921 97.564690,369.509247 98.102707,354.936035 
M644.065308,261.241486 
	C637.976501,262.892242 631.833008,264.367798 625.814392,266.243622 
	C619.940552,268.074249 614.196838,274.977386 615.368164,279.358826 
	C619.429077,294.548767 623.906799,309.627228 628.286377,324.959808 
	C631.998291,323.987518 634.976990,323.207245 638.316284,322.332550 
	C637.835022,320.246613 637.517456,318.649261 637.096130,317.079742 
	C634.210266,306.329987 631.363037,295.569183 628.363037,284.851166 
	C627.523682,281.852295 627.805237,279.789490 631.010803,278.466980 
	C636.384155,276.250061 641.539856,273.462799 646.999329,271.508087 
	C653.814270,269.068054 657.783325,270.601044 660.892517,277.104889 
	C663.677795,282.931030 665.291199,289.317444 668.076477,295.143585 
	C670.889648,301.028076 674.507812,306.527802 677.773315,312.196075 
	C678.354614,311.999573 678.935852,311.803101 679.517151,311.606598 
	C679.517151,303.737762 680.445312,295.721771 679.228149,288.045959 
	C678.225647,281.723816 675.684448,275.107697 672.041199,269.860535 
	C665.581909,260.557709 655.237610,260.237396 644.065308,261.241486 
M168.047836,572.549255 
	C158.183517,582.419495 151.918716,582.330627 142.515594,572.136047 
	C141.391754,570.917603 140.493500,569.494263 139.416153,568.229370 
	C134.169876,562.069641 128.898239,555.931396 123.900597,550.095093 
	C118.807732,551.765320 118.506180,554.037598 120.264847,557.978760 
	C124.977371,568.539429 132.110260,577.332153 140.234177,585.186829 
	C149.982605,594.612183 157.338287,596.305969 165.452927,589.852051 
	C173.676804,583.311340 180.790482,575.211060 187.610397,567.135132 
	C191.233078,562.845337 191.393448,557.395264 186.863266,552.654114 
	C184.232239,549.900452 182.182251,546.601257 179.735901,543.659668 
	C172.866409,535.399414 165.926971,527.197388 158.929199,518.870117 
	C156.283859,521.029114 154.136566,522.781616 151.750931,524.728577 
	C161.095688,536.873840 170.189102,548.692383 179.317093,560.555847 
	C175.543335,564.568726 172.039078,568.295044 168.047836,572.549255 
M118.642036,529.235229 
	C131.397400,525.139465 143.258972,519.733093 151.394730,507.344269 
	C146.896896,507.344269 143.292007,507.125610 139.722076,507.386047 
	C129.824982,508.108063 125.389900,505.411285 121.873909,495.990631 
	C120.364510,491.946320 119.271751,487.739410 117.634949,483.751984 
	C116.353531,480.630341 117.158348,478.950562 120.023788,477.331085 
	C124.833984,474.612457 129.407333,471.474762 134.393143,468.315155 
	C119.368294,459.451721 87.916580,477.062866 81.475800,490.678589 
	C87.999847,489.687714 94.420258,488.952118 100.721748,487.643738 
	C103.438751,487.079620 104.702850,487.790344 105.798065,490.044617 
	C109.430046,497.520477 113.032074,505.015106 116.882362,512.378723 
	C118.460075,515.396057 117.837044,517.011658 115.026047,518.803528 
	C109.237144,522.493774 103.695198,526.571411 98.051620,530.489624 
	C98.252937,531.153992 98.454254,531.818359 98.655571,532.482727 
	C105.062881,531.494141 111.470192,530.505615 118.642036,529.235229 
M581.413208,153.060333 
	C588.589233,158.567673 595.511902,164.449326 603.249084,169.127426 
	C603.568237,168.731400 603.887390,168.335358 604.206543,167.939331 
	C595.136902,157.192215 586.067200,146.445099 576.767517,135.425400 
	C564.256531,145.800430 552.163818,155.828629 539.964905,165.944931 
	C551.098022,178.283875 561.760132,190.182755 572.566406,201.949158 
	C573.633850,203.111481 575.583862,203.463364 577.124207,204.191406 
	C577.453552,203.667404 577.782898,203.143402 578.112244,202.619400 
	C569.724548,191.362473 561.336853,180.105545 553.043884,168.975754 
	C555.585938,165.582169 557.956787,165.416916 560.991089,167.638718 
	C565.420959,170.882339 570.083008,173.810242 574.666016,176.842712 
	C578.482483,179.367966 582.327515,181.849976 586.457947,184.545685 
	C587.954102,179.399155 586.422485,175.895950 583.510254,172.865753 
	C580.509338,169.743301 577.261475,166.851898 574.347046,163.654037 
	C569.725708,158.583176 569.623840,153.084091 574.081421,147.785858 
	C576.315674,149.382217 578.582520,151.001892 581.413208,153.060333 
M181.305756,146.252548 
	C192.018341,156.614471 202.730927,166.976395 213.371414,177.268600 
	C214.625168,176.193237 216.340836,174.721664 218.280640,173.057861 
	C210.629807,162.538681 203.319916,152.244537 195.717239,142.171371 
	C193.158234,138.780838 192.125244,136.227692 195.984665,133.061188 
	C198.657944,130.867874 200.715210,127.936134 203.131500,125.414635 
	C208.072769,120.258179 208.096024,120.280464 202.217239,114.745735 
	C190.488998,123.576546 179.056183,133.022400 166.744949,141.135269 
	C159.553680,145.874176 159.155670,151.406921 160.756439,158.995926 
	C167.569183,154.626205 174.088531,150.444641 181.305756,146.252548 
M153.124710,244.587524 
	C159.060089,233.232864 164.431549,221.709030 164.267471,208.459412 
	C155.976456,219.453110 148.098602,230.561966 140.748550,242.009689 
	C138.011093,246.273346 135.366013,246.896133 131.436539,244.298584 
	C125.756378,240.543808 120.092720,236.763977 114.402298,233.024841 
	C109.296562,229.669891 103.858017,227.065430 97.583122,228.046692 
	C96.043922,228.287384 94.525635,230.099487 93.515030,231.549652 
	C93.130257,232.101807 93.867058,234.197540 94.655571,234.691803 
	C107.763153,242.908188 120.892548,251.095428 134.182007,259.012329 
	C137.800751,261.168121 141.709061,260.625763 144.455109,257.021210 
	C147.368759,253.196609 150.028839,249.178833 153.124710,244.587524 
M373.291168,100.919853 
	C374.720184,107.593872 375.871002,114.390938 381.601990,120.305199 
	C381.601990,100.109795 381.601990,80.967804 381.601990,61.825817 
	C379.776154,63.088863 378.709320,64.658508 377.886169,66.346947 
	C372.666656,77.053406 372.479614,88.481804 373.291168,100.919853 
z"/>
<path fill="#F2F2F2" opacity="1.000000" stroke="none" 
	d="
M407.000000,752.000000 
	C386.979095,752.000000 366.958221,752.000000 346.383575,751.609619 
	C345.164886,750.820374 344.533051,750.150940 343.829834,750.064880 
	C337.761261,749.322327 331.665833,748.791870 325.604736,747.997253 
	C302.623352,744.984314 279.999176,740.198059 258.156006,732.440552 
	C241.118164,726.389709 224.299911,719.665833 207.649338,712.614685 
	C202.973953,710.634705 196.690552,708.226257 199.357300,700.618530 
	C200.515350,699.683899 201.434830,698.739502 202.030807,697.622437 
	C235.316788,635.231812 268.577148,572.827454 301.825928,510.416962 
	C302.420258,509.301300 302.843506,508.094513 303.325043,506.980103 
	C233.455994,463.283325 215.561920,392.509094 234.365585,331.540649 
	C253.503281,269.489288 309.460388,228.643600 375.315125,228.047501 
	C440.132050,227.460785 495.450439,267.320984 516.499817,329.706268 
	C526.549805,359.491943 527.759216,389.450958 518.082092,419.516052 
	C505.149200,459.696075 479.093719,488.888489 442.137329,508.694153 
	C442.477203,509.451752 442.647583,509.909332 442.878052,510.334290 
	C475.160919,569.865967 507.472321,629.382080 539.681702,688.953369 
	C541.875122,693.010193 543.303955,697.480469 545.064209,702.189697 
	C545.692261,709.365723 541.658936,713.250183 536.312622,715.785767 
	C515.870300,725.480835 494.671387,733.385254 472.723969,738.674866 
	C454.452911,743.078430 435.729370,745.592590 417.231232,749.076233 
	C413.760376,749.729858 410.407379,751.009338 407.000000,752.000000 
M248.008331,663.765930 
	C247.757294,664.412476 247.506271,665.059021 246.845718,666.216858 
	C241.059555,678.332092 235.273407,690.447266 229.068420,703.439453 
	C306.088928,733.548706 383.789215,742.138672 464.206696,719.145630 
	C445.723419,671.392212 427.614197,624.605164 409.396149,577.536987 
	C402.160614,580.370239 395.428162,583.006470 388.377502,585.767395 
	C403.692688,625.368713 418.821472,664.488098 434.081757,703.947449 
	C374.925323,713.772766 317.488708,711.231018 261.120911,690.204102 
	C293.306366,621.198730 325.251373,552.708923 357.257263,484.088562 
	C347.323334,478.816467 337.919189,473.836487 328.525482,468.836945 
	C319.196533,463.871826 309.878082,458.887024 300.101379,453.668701 
	C309.849152,445.872070 319.034058,438.525635 328.095581,431.277924 
	C351.814331,448.489899 376.969513,453.768005 398.023743,447.482391 
	C397.040497,435.834564 390.192352,429.577850 376.729004,426.863861 
	C368.964905,425.298706 360.823730,423.821198 353.888031,420.277252 
	C335.987976,411.130981 325.389557,396.225952 325.102142,375.695557 
	C324.814148,355.122528 334.627014,340.176849 353.054291,330.948975 
	C353.798065,330.576508 354.531342,330.177948 355.244019,329.749207 
	C365.296814,323.702209 368.172028,314.490509 363.393890,303.664246 
	C324.471649,309.552704 297.354889,347.051727 303.474731,386.448822 
	C304.520905,393.183502 305.528656,399.936859 306.169189,406.717957 
	C306.715149,412.497284 304.197662,417.263123 299.401062,420.357025 
	C294.006378,423.836670 288.270172,426.786957 282.284271,430.194244 
	C281.349030,427.812866 280.657257,426.146973 280.036407,424.455017 
	C276.081696,413.677582 272.196716,402.873871 268.127289,392.140106 
	C267.640869,390.857147 266.223999,389.060883 265.161102,389.006256 
	C259.231079,388.701447 253.277206,388.859772 247.196030,388.859772 
	C248.760040,411.669006 255.675461,431.789856 269.584930,449.330261 
	C280.467224,463.053223 293.799622,474.044006 308.114044,483.922699 
	C314.386414,488.251343 320.828186,492.334534 327.301971,496.600983 
	C326.585236,498.148956 325.972687,499.501678 325.335815,500.842896 
	C312.704437,527.443848 300.047974,554.032959 287.442749,580.646362 
	C274.413147,608.155762 261.432831,635.688477 248.008331,663.765930 
M456.649994,627.891052 
	C471.001251,655.619934 485.352509,683.348877 499.839752,711.340515 
	C506.404419,707.190552 512.515991,703.327087 518.815918,699.344482 
	C484.477325,632.543945 450.365631,566.184753 416.391937,500.094055 
	C425.800446,494.531921 434.898956,489.637360 443.495239,483.979706 
	C468.768555,467.346069 490.160889,446.792603 500.646301,417.801086 
	C517.681274,370.700348 507.272217,327.730469 475.423126,290.642334 
	C444.618500,254.770493 403.618683,242.874619 357.396545,247.836273 
	C309.422852,252.985947 264.804474,290.743622 251.633621,337.141113 
	C249.495148,344.674377 248.635574,352.570709 247.136368,360.557465 
	C254.876663,360.557465 261.293304,360.557465 267.318756,360.557465 
	C269.654694,353.406067 271.535645,346.480621 274.144806,339.841309 
	C298.762421,277.198547 375.757416,247.720367 433.811584,285.082367 
	C491.611206,322.280548 502.475067,399.282898 455.910278,447.845428 
	C438.431061,466.074524 416.625793,476.138123 391.884369,479.871613 
	C380.643250,481.567902 373.368103,486.880890 370.324554,498.210144 
	C357.889832,544.497314 345.113556,590.692749 332.742584,636.996704 
	C330.826080,644.170166 329.639587,651.709351 329.403351,659.120483 
	C329.059753,669.897339 334.804901,675.881714 345.572205,676.860535 
	C351.012360,677.355042 356.638519,677.548096 362.005402,676.729248 
	C372.233917,675.168640 382.336761,672.784668 392.950348,670.650269 
	C389.594177,663.105225 386.834381,656.900879 383.969818,650.461060 
	C372.963226,652.186829 362.233795,653.869080 351.064270,655.620361 
	C364.447113,604.030518 377.638916,553.177185 391.088165,501.331421 
	C413.147095,543.966003 434.696930,585.616577 456.649994,627.891052 
M421.614227,412.105377 
	C420.380646,413.882843 418.885132,415.540833 418.001495,417.477936 
	C417.366608,418.869720 416.870270,420.988098 417.486572,422.169800 
	C419.861511,426.723694 422.708710,431.031250 425.373352,435.419830 
	C446.504150,423.961426 468.765594,393.181641 457.640289,355.505829 
	C448.695587,325.214630 417.474274,300.365448 391.990417,303.435272 
	C391.990417,308.550201 392.162903,313.704773 391.923767,318.840149 
	C391.786957,321.778015 392.767700,323.095459 395.537903,324.252380 
	C401.810211,326.872009 408.107178,329.625275 413.918549,333.115906 
	C425.999786,340.372559 431.183380,352.200714 434.822418,366.938446 
	C422.490570,361.496643 411.472168,356.640686 400.459656,351.771393 
	C396.522522,350.030548 392.744446,347.738831 388.643799,346.593933 
	C374.966492,342.775421 361.730103,348.218964 354.622162,360.146301 
	C347.682465,371.791229 349.382965,386.086029 358.897491,396.085419 
	C369.622040,407.356628 388.177307,409.701813 397.492554,399.623627 
	C408.760986,387.432312 422.091064,386.980438 437.226562,389.434418 
	C431.980682,397.046570 426.997528,404.277435 421.614227,412.105377 
z"/>
<path fill="#FFFFFF" opacity="1.000000" stroke="none" 
	d="
M407.468658,752.000000 
	C410.407379,751.009338 413.760376,749.729858 417.231232,749.076233 
	C435.729370,745.592590 454.452911,743.078430 472.723969,738.674866 
	C494.671387,733.385254 515.870300,725.480835 536.312622,715.785767 
	C541.658936,713.250183 545.692261,709.365723 545.414429,702.159912 
	C556.870178,696.715881 567.951660,691.732849 579.033142,686.749878 
	C580.979065,686.547485 583.336609,686.990112 584.811218,686.049133 
	C633.899170,654.724792 672.119263,613.076904 701.105347,562.794312 
	C720.347046,529.415283 734.603455,493.958008 742.114136,456.166199 
	C746.081360,436.203674 747.703979,415.775177 750.692627,395.278534 
	C751.000000,513.925720 751.000000,632.851440 751.000000,752.000000 
	C636.645874,752.000000 522.291565,752.000000 407.468658,752.000000 
z"/>
<path fill="#FFFFFF" opacity="1.000000" stroke="none" 
	d="
M751.000000,359.531342 
	C750.405579,354.458313 749.726257,348.924194 749.229614,343.373749 
	C742.321960,266.179352 714.371399,197.527054 664.993286,137.829819 
	C625.525940,90.114525 576.832275,54.675591 519.734192,30.680281 
	C488.088196,17.381145 455.185425,8.910803 421.254089,4.295589 
	C412.049500,3.043618 402.743530,2.537353 393.242035,1.344415 
	C512.260498,1.000000 631.520996,1.000000 751.000000,1.000000 
	C751.000000,120.354141 751.000000,239.708405 751.000000,359.531342 
z"/>
<path fill="#FFFFFF" opacity="1.000000" stroke="none" 
	d="
M198.967773,700.528259 
	C196.690552,708.226257 202.973953,710.634705 207.649338,712.614685 
	C224.299911,719.665833 241.118164,726.389709 258.156006,732.440552 
	C279.999176,740.198059 302.623352,744.984314 325.604736,747.997253 
	C331.665833,748.791870 337.761261,749.322327 343.829834,750.064880 
	C344.533051,750.150940 345.164886,750.820374 345.914917,751.609619 
	C231.072205,752.000000 116.144394,752.000000 1.000000,752.000000 
	C1.000000,634.979187 1.000000,517.958252 1.000000,400.468658 
	C1.595031,404.373810 2.359085,408.732269 2.758540,413.123871 
	C6.160844,450.528503 15.418713,486.453369 29.888021,521.070984 
	C45.160950,557.611206 65.588577,590.985718 91.540855,620.917908 
	C113.821976,646.616089 139.066925,668.907898 168.136902,686.721008 
	C169.534393,687.577332 171.067261,688.212708 173.250061,688.917603 
	C182.297943,692.765564 190.632858,696.646912 198.967773,700.528259 
z"/>
<path fill="#FFFFFF" opacity="1.000000" stroke="none" 
	d="
M349.531342,1.000000 
	C345.832642,1.639107 341.685333,2.494142 337.494781,2.883783 
	C297.369751,6.614643 259.153809,17.370354 222.609055,34.168907 
	C184.816620,51.540985 150.813126,74.542252 120.336891,102.888931 
	C90.600449,130.547516 65.872749,162.053162 46.176922,197.526245 
	C29.269064,227.978043 16.735886,260.180847 9.972661,294.334625 
	C6.176411,313.505371 4.334643,333.063171 1.306152,352.723297 
	C1.000000,235.739899 1.000000,118.479805 1.000000,1.000000 
	C117.020805,1.000000 233.041748,1.000000 349.531342,1.000000 
z"/>
<path fill="#020202" opacity="1.000000" stroke="none" 
	d="
M199.357300,700.618530 
	C190.632858,696.646912 182.297943,692.765564 173.610352,688.813110 
	C181.290985,673.426636 189.244980,658.069031 197.373184,642.804199 
	C217.791092,604.459106 238.289215,566.156677 258.746979,527.832825 
	C259.447327,526.520813 260.059967,525.162048 260.810608,523.626404 
	C254.789352,517.571716 248.544724,511.806946 242.884369,505.516418 
	C208.501617,467.305542 189.849609,422.950195 191.045776,371.016876 
	C193.138123,280.174744 261.791199,204.289749 352.210999,192.793381 
	C436.841919,182.033035 520.835266,231.803589 549.377014,310.831726 
	C573.360168,377.237732 563.420715,459.724762 493.228973,519.877808 
	C490.586365,522.142456 487.932220,524.393677 485.048523,526.851379 
	C495.443390,544.240295 505.757050,561.509521 516.086487,578.769348 
	C536.604553,613.053467 557.139465,647.327515 577.623413,681.631958 
	C578.413757,682.955566 578.748779,684.551025 579.164551,686.384888 
	C567.951660,691.732849 556.870178,696.715881 545.438538,701.728638 
	C543.303955,697.480469 541.875122,693.010193 539.681702,688.953369 
	C507.472321,629.382080 475.160919,569.865967 442.878052,510.334290 
	C442.647583,509.909332 442.477203,509.451752 442.137329,508.694153 
	C479.093719,488.888489 505.149200,459.696075 518.082092,419.516052 
	C527.759216,389.450958 526.549805,359.491943 516.499817,329.706268 
	C495.450439,267.320984 440.132050,227.460785 375.315125,228.047501 
	C309.460388,228.643600 253.503281,269.489288 234.365585,331.540649 
	C215.561920,392.509094 233.455994,463.283325 303.325043,506.980103 
	C302.843506,508.094513 302.420258,509.301300 301.825928,510.416962 
	C268.577148,572.827454 235.316788,635.231812 202.030807,697.622437 
	C201.434830,698.739502 200.515350,699.683899 199.357300,700.618530 
z"/>
<path fill="#EFF5F9" opacity="1.000000" stroke="none" 
	d="
M302.638977,109.415947 
	C300.803864,98.168587 298.951752,87.359962 297.517700,76.496155 
	C297.318329,74.985565 298.941956,71.962509 300.123047,71.736404 
	C313.304047,69.212982 326.492584,66.111160 339.822113,65.151093 
	C353.888397,64.137962 360.577545,73.355797 357.026550,87.178093 
	C355.690643,92.377991 352.968842,97.221848 350.706421,102.640991 
	C352.127289,107.959679 361.149353,110.469604 358.824005,119.337944 
	C344.325958,113.375267 330.522583,107.698280 315.869537,101.671852 
	C315.195374,108.058800 314.438202,113.906013 313.993805,119.776901 
	C313.433044,127.185196 313.543121,127.193527 305.382538,126.712448 
	C304.522705,121.191032 303.638672,115.514099 302.638977,109.415947 
M332.085571,75.493301 
	C324.628265,78.396378 317.170959,81.299454 308.602478,84.635094 
	C313.145874,89.034355 316.513550,92.451500 320.091949,95.631485 
	C320.829254,96.286690 322.670746,96.607971 323.464111,96.149712 
	C330.724945,91.955574 337.866608,87.555199 345.636017,82.856377 
	C341.169067,79.588585 338.971466,74.284035 332.085571,75.493301 
z"/>
<path fill="#F4F8FA" opacity="1.000000" stroke="none" 
	d="
M645.015625,216.209534 
	C646.042053,223.175339 646.909241,229.785477 647.733765,236.070358 
	C642.909973,237.772018 641.138245,236.136642 639.629395,233.239059 
	C635.251282,224.831482 630.432800,216.646118 626.262146,208.140579 
	C623.988464,203.503754 620.465271,202.194290 615.750793,202.056808 
	C613.265808,206.603638 613.370239,210.791641 616.323181,215.140503 
	C620.148865,220.774734 623.962524,226.462387 627.192261,232.445084 
	C631.653015,240.708191 630.200500,246.318283 622.661377,251.887222 
	C620.275879,253.649338 617.657288,255.232117 614.923828,256.359802 
	C608.495422,259.011749 603.097473,257.683167 599.092712,252.023163 
	C594.298279,245.247131 589.273682,238.455902 585.778748,231.000916 
	C583.450867,226.035156 583.406921,219.922028 582.763245,214.274277 
	C582.418945,211.252869 582.969299,208.129532 583.167908,203.961517 
	C590.529480,214.629044 597.291748,224.427612 604.053284,234.226669 
	C604.998230,235.596115 605.935669,236.970764 606.883606,238.338120 
	C611.135376,244.471130 611.138611,244.470917 618.483093,239.838394 
	C613.695068,232.156601 609.129944,224.301010 604.021179,216.816452 
	C600.410645,211.526901 597.725037,205.949875 601.199646,200.174484 
	C605.472351,193.072495 612.164978,188.007950 620.759827,188.400497 
	C624.254150,188.560074 628.469666,191.679565 630.804016,194.666183 
	C636.007141,201.323074 640.232544,208.744202 645.015625,216.209534 
z"/>
<path fill="#F1F5F9" opacity="1.000000" stroke="none" 
	d="
M609.685425,585.696167 
	C602.957703,592.324585 597.042236,594.145447 588.058838,591.817688 
	C592.138123,587.319641 595.728516,583.136536 599.563171,579.190796 
	C604.015137,574.609741 608.504761,570.024231 609.348694,563.366272 
	C609.806458,559.755127 609.430298,556.038330 609.430298,552.369202 
	C608.865356,552.234863 608.300415,552.100525 607.735474,551.966187 
	C601.633728,559.097107 595.515991,566.214355 589.435852,573.363708 
	C585.385681,578.126038 580.777039,582.306030 574.071106,579.982666 
	C566.205017,577.257324 559.552307,572.170166 558.351318,563.557007 
	C557.819336,559.741211 560.282654,554.920471 562.657288,551.417358 
	C566.746094,545.385559 571.952942,540.124634 576.463013,534.362061 
	C581.631470,527.758179 588.736328,526.447083 597.419495,526.448547 
	C595.830261,528.173950 594.632080,529.381287 593.539185,530.677246 
	C588.083069,537.146973 582.238159,543.343933 577.350403,550.220032 
	C573.560242,555.552002 572.348694,561.767578 577.331482,568.624084 
	C583.659668,561.659790 589.945923,555.132629 595.762451,548.210693 
	C600.030151,543.132080 604.452820,538.485596 611.666443,540.131287 
	C619.017517,541.808411 624.446594,546.535583 627.554260,553.413147 
	C629.740845,558.252197 628.337158,563.006958 625.213745,566.991821 
	C620.289429,573.274414 615.044922,579.305969 609.685425,585.696167 
z"/>
<path fill="#EFF5F9" opacity="1.000000" stroke="none" 
	d="
M107.489334,441.977295 
	C113.700142,442.449585 119.484444,442.834320 125.520126,443.235809 
	C125.865395,444.932922 126.105354,446.540009 126.528625,448.097321 
	C127.244598,450.731445 126.108368,451.623810 123.595688,451.999390 
	C108.818665,454.208130 94.056076,456.514984 79.298805,458.853058 
	C75.762062,459.413452 73.235069,458.233978 71.219238,455.287201 
	C65.486824,446.907471 64.498299,436.990784 62.045425,427.548401 
	C61.671001,426.107025 61.523422,424.605408 61.293159,423.128174 
	C59.953442,414.533691 63.387375,407.482574 71.782494,405.082611 
	C83.398766,401.761871 95.351402,399.611115 107.175354,397.029663 
	C109.248619,396.577026 111.397324,396.469940 115.594299,395.940521 
	C100.499725,410.046722 100.218544,425.460999 107.489334,441.977295 
M89.689575,443.190674 
	C90.546631,441.103851 92.273102,438.941437 92.099380,436.944275 
	C91.556259,430.700531 89.838402,424.547455 89.453362,418.305084 
	C89.127892,413.028442 86.232468,411.236420 81.850853,410.365265 
	C72.596474,421.208313 72.834938,434.753479 82.677979,447.279358 
	C84.783379,446.070984 86.931320,444.838196 89.689575,443.190674 
z"/>
<path fill="#F1F6F9" opacity="1.000000" stroke="none" 
	d="
M84.968651,287.702393 
	C85.405228,290.427460 85.812729,292.712402 86.310349,295.502716 
	C92.387924,291.304749 96.204514,285.759491 98.739174,279.239319 
	C99.882584,276.298004 100.976273,273.317566 101.789917,270.274017 
	C102.473038,267.718658 103.898819,266.147339 106.328217,267.319183 
	C107.638939,267.951416 109.082069,270.149506 108.993782,271.548248 
	C108.336044,281.968872 107.309647,292.366211 106.349373,303.336426 
	C108.339630,303.824188 110.334686,304.313141 112.792892,304.915588 
	C117.727287,292.194458 122.573830,279.699799 127.382736,267.302185 
	C135.033768,268.230042 136.077774,269.063263 134.528473,276.015350 
	C132.658188,284.407837 130.020004,292.640198 127.473724,300.867432 
	C125.614082,306.876068 123.365753,312.764374 120.982758,319.588104 
	C102.766449,313.694275 84.547371,307.799561 66.212158,301.867279 
	C70.058304,289.407349 73.510925,277.306335 77.617805,265.431610 
	C78.991333,261.460144 81.768143,257.848846 84.466759,254.531067 
	C85.369637,253.421036 88.231842,253.110687 89.797478,253.634094 
	C90.724205,253.943909 91.540230,256.732941 91.253227,258.178192 
	C89.321213,267.907166 87.080376,277.574799 84.968651,287.702393 
z"/>
<path fill="#F1F6FA" opacity="1.000000" stroke="none" 
	d="
M639.647827,496.646362 
	C634.906738,503.845367 630.425842,510.795013 625.931519,517.765564 
	C618.965149,515.767395 619.250793,515.633484 621.518372,508.643738 
	C624.062805,500.800446 625.882324,492.709595 627.695801,484.654083 
	C627.989075,483.351318 626.612854,481.672668 626.008301,480.167786 
	C624.382080,480.859039 622.009705,481.088104 621.249268,482.315674 
	C615.822571,491.075745 610.704224,500.027618 605.528748,508.942291 
	C601.664124,515.599060 601.344177,515.659546 594.361694,509.701904 
	C600.876587,496.895172 607.220825,483.744476 614.259888,470.976898 
	C616.541687,466.838135 621.620972,467.562775 625.623108,468.609741 
	C629.280396,469.566559 632.761169,471.318024 636.199524,472.969574 
	C646.824829,478.073242 657.392822,483.296417 668.673096,488.810486 
	C660.718384,504.167877 652.974548,519.118286 645.047424,534.422485 
	C642.421265,533.231689 640.229004,532.237732 637.613647,531.051880 
	C640.702942,523.674316 643.578491,516.638428 646.592346,509.662354 
	C649.073975,503.918091 649.897278,498.233459 646.457703,492.020386 
	C644.234741,493.505798 642.071350,494.951385 639.647827,496.646362 
z"/>
<path fill="#EFF5F8" opacity="1.000000" stroke="none" 
	d="
M672.851685,468.145538 
	C663.049866,470.770782 654.346985,468.165588 646.432800,463.397949 
	C641.653564,460.518860 641.405212,455.207428 642.524414,449.954132 
	C644.355957,441.357025 645.972107,432.713593 647.841553,424.125092 
	C648.526550,420.978333 647.725586,419.280396 644.553040,418.144104 
	C639.320862,416.270081 634.259888,413.918304 628.805481,411.633362 
	C634.228088,405.918518 639.729187,403.637695 647.095398,405.880707 
	C655.642761,408.483368 664.633484,409.709045 673.058838,412.614105 
	C685.210754,416.804047 689.214172,423.570160 686.699951,436.097198 
	C684.980896,444.662506 681.844666,452.986572 678.797180,461.216705 
	C677.838013,463.806976 675.111816,465.742920 672.851685,468.145538 
M653.403625,453.184204 
	C655.321899,453.557037 657.232300,453.977753 659.159851,454.294067 
	C666.265869,455.460114 671.175476,452.780579 672.679871,446.010895 
	C673.744324,441.221313 674.237244,436.133484 673.919922,431.247986 
	C673.438782,423.840973 667.322571,421.324188 661.647156,425.976776 
	C659.983459,427.340637 658.637573,429.593933 658.061768,431.691040 
	C656.181641,438.538422 654.723999,445.501862 653.403625,453.184204 
z"/>
<path fill="#F5F9FB" opacity="1.000000" stroke="none" 
	d="
M663.139038,333.963379 
	C684.834290,333.784637 681.314270,333.072418 685.296875,351.377380 
	C687.325134,360.699646 687.090637,370.518890 687.815247,380.118286 
	C688.221191,385.496887 685.353394,389.210999 680.413330,389.794067 
	C670.733154,390.936523 660.917175,391.858948 651.206848,391.506744 
	C644.029785,391.246399 636.931152,388.822693 629.797607,387.362793 
	C629.765503,386.916138 629.733398,386.469482 629.701294,386.022827 
	C635.211243,384.028473 640.667664,381.864166 646.252380,380.107635 
	C649.293457,379.151154 650.539978,377.735901 650.245728,374.415894 
	C649.600098,367.128662 649.514893,359.788666 648.749817,352.517670 
	C648.582520,350.928009 646.820251,348.783691 645.291138,348.193268 
	C640.400757,346.304932 635.274963,345.026520 628.804565,343.081055 
	C640.121948,336.384521 651.358887,335.072723 663.139038,333.963379 
M660.010193,370.024780 
	C661.564941,378.379822 667.156799,380.971741 677.760986,378.118866 
	C678.138550,373.735596 678.806580,369.285767 678.828247,364.832825 
	C678.851562,360.035522 678.653687,355.169067 677.841187,350.455322 
	C677.058167,345.911957 673.583618,344.743378 666.548157,345.011536 
	C661.817139,345.191864 661.314453,348.254974 661.066833,351.716309 
	C660.651978,357.516266 660.334778,363.323181 660.010193,370.024780 
z"/>
<path fill="#EDF4F8" opacity="1.000000" stroke="none" 
	d="
M296.748108,128.713501 
	C295.083466,129.833374 293.693542,130.728806 291.880981,131.896530 
	C287.643036,126.757996 283.246735,121.816078 279.326569,116.521606 
	C277.138367,113.566238 275.093292,113.542274 272.112640,114.931923 
	C265.628082,117.955200 259.119995,120.967789 252.446442,123.528488 
	C249.264221,124.749535 248.475830,126.508644 248.924911,129.558517 
	C249.699142,134.816452 250.200394,140.116058 251.039261,145.362503 
	C251.570465,148.684753 249.704346,149.574448 247.102402,150.544754 
	C244.044373,151.685181 243.280090,149.805725 242.357925,147.759445 
	C235.861755,133.344528 229.492447,118.870171 222.790146,104.551697 
	C220.513657,99.688293 224.306213,98.536186 227.228241,95.769249 
	C230.940369,100.348274 234.708496,104.681313 238.100327,109.291214 
	C240.357529,112.359039 242.480286,113.406715 246.450195,112.126862 
	C265.462036,105.997681 267.998749,102.877762 269.092560,82.742699 
	C269.217926,80.434883 269.682312,78.145470 270.179321,74.427429 
	C273.199432,78.277611 276.163086,80.977768 277.797058,84.326698 
	C284.643738,98.359169 291.101807,112.581490 297.635132,126.765190 
	C297.817749,127.161659 297.243896,127.906601 296.748108,128.713501 
z"/>
<path fill="#F4F8FA" opacity="1.000000" stroke="none" 
	d="
M98.065033,355.381775 
	C97.564690,369.509247 99.816086,371.906921 116.540863,375.543976 
	C116.805412,382.520508 116.318474,383.198151 109.805588,382.835236 
	C92.755875,381.885101 75.714600,380.783600 57.849331,379.692322 
	C59.629097,364.489319 61.112301,349.668060 63.188648,334.930359 
	C64.342087,326.743408 77.904106,321.798187 86.634300,325.940369 
	C87.382614,326.295410 88.088028,326.746155 88.795044,327.182190 
	C101.419838,334.968262 102.365196,337.245911 98.920120,351.544006 
	C98.647690,352.674683 98.375183,353.805359 98.065033,355.381775 
M86.141930,335.144653 
	C75.984535,334.943207 70.102913,339.229095 70.171906,347.342316 
	C70.226418,353.751404 70.981575,360.154510 71.449654,366.907654 
	C74.253540,367.273956 77.018707,367.868195 79.798889,367.949585 
	C85.454872,368.115112 88.610680,366.097382 88.619415,360.803925 
	C88.633263,352.411530 87.499619,344.017242 86.141930,335.144653 
z"/>
<path fill="#EEF4F8" opacity="1.000000" stroke="none" 
	d="
M644.512329,261.177429 
	C655.237610,260.237396 665.581909,260.557709 672.041199,269.860535 
	C675.684448,275.107697 678.225647,281.723816 679.228149,288.045959 
	C680.445312,295.721771 679.517151,303.737762 679.517151,311.606598 
	C678.935852,311.803101 678.354614,311.999573 677.773315,312.196075 
	C674.507812,306.527802 670.889648,301.028076 668.076477,295.143585 
	C665.291199,289.317444 663.677795,282.931030 660.892517,277.104889 
	C657.783325,270.601044 653.814270,269.068054 646.999329,271.508087 
	C641.539856,273.462799 636.384155,276.250061 631.010803,278.466980 
	C627.805237,279.789490 627.523682,281.852295 628.363037,284.851166 
	C631.363037,295.569183 634.210266,306.329987 637.096130,317.079742 
	C637.517456,318.649261 637.835022,320.246613 638.316284,322.332550 
	C634.976990,323.207245 631.998291,323.987518 628.286377,324.959808 
	C623.906799,309.627228 619.429077,294.548767 615.368164,279.358826 
	C614.196838,274.977386 619.940552,268.074249 625.814392,266.243622 
	C631.833008,264.367798 637.976501,262.892242 644.512329,261.177429 
z"/>
<path fill="#F1F5F9" opacity="1.000000" stroke="none" 
	d="
M168.291336,572.285278 
	C172.039078,568.295044 175.543335,564.568726 179.317093,560.555847 
	C170.189102,548.692383 161.095688,536.873840 151.750931,524.728577 
	C154.136566,522.781616 156.283859,521.029114 158.929199,518.870117 
	C165.926971,527.197388 172.866409,535.399414 179.735901,543.659668 
	C182.182251,546.601257 184.232239,549.900452 186.863266,552.654114 
	C191.393448,557.395264 191.233078,562.845337 187.610397,567.135132 
	C180.790482,575.211060 173.676804,583.311340 165.452927,589.852051 
	C157.338287,596.305969 149.982605,594.612183 140.234177,585.186829 
	C132.110260,577.332153 124.977371,568.539429 120.264847,557.978760 
	C118.506180,554.037598 118.807732,551.765320 123.900597,550.095093 
	C128.898239,555.931396 134.169876,562.069641 139.416153,568.229370 
	C140.493500,569.494263 141.391754,570.917603 142.515594,572.136047 
	C151.918716,582.330627 158.183517,582.419495 168.291336,572.285278 
z"/>
<path fill="#F2F6FA" opacity="1.000000" stroke="none" 
	d="
M118.259766,529.376099 
	C111.470192,530.505615 105.062881,531.494141 98.655571,532.482727 
	C98.454254,531.818359 98.252937,531.153992 98.051620,530.489624 
	C103.695198,526.571411 109.237144,522.493774 115.026047,518.803528 
	C117.837044,517.011658 118.460075,515.396057 116.882362,512.378723 
	C113.032074,505.015106 109.430046,497.520477 105.798065,490.044617 
	C104.702850,487.790344 103.438751,487.079620 100.721748,487.643738 
	C94.420258,488.952118 87.999847,489.687714 81.475800,490.678589 
	C87.916580,477.062866 119.368294,459.451721 134.393143,468.315155 
	C129.407333,471.474762 124.833984,474.612457 120.023788,477.331085 
	C117.158348,478.950562 116.353531,480.630341 117.634949,483.751984 
	C119.271751,487.739410 120.364510,491.946320 121.873909,495.990631 
	C125.389900,505.411285 129.824982,508.108063 139.722076,507.386047 
	C143.292007,507.125610 146.896896,507.344269 151.394730,507.344269 
	C143.258972,519.733093 131.397400,525.139465 118.259766,529.376099 
z"/>
<path fill="#F1F6FA" opacity="1.000000" stroke="none" 
	d="
M581.131287,152.840958 
	C578.582520,151.001892 576.315674,149.382217 574.081421,147.785858 
	C569.623840,153.084091 569.725708,158.583176 574.347046,163.654037 
	C577.261475,166.851898 580.509338,169.743301 583.510254,172.865753 
	C586.422485,175.895950 587.954102,179.399155 586.457947,184.545685 
	C582.327515,181.849976 578.482483,179.367966 574.666016,176.842712 
	C570.083008,173.810242 565.420959,170.882339 560.991089,167.638718 
	C557.956787,165.416916 555.585938,165.582169 553.043884,168.975754 
	C561.336853,180.105545 569.724548,191.362473 578.112244,202.619400 
	C577.782898,203.143402 577.453552,203.667404 577.124207,204.191406 
	C575.583862,203.463364 573.633850,203.111481 572.566406,201.949158 
	C561.760132,190.182755 551.098022,178.283875 539.964905,165.944931 
	C552.163818,155.828629 564.256531,145.800430 576.767517,135.425400 
	C586.067200,146.445099 595.136902,157.192215 604.206543,167.939331 
	C603.887390,168.335358 603.568237,168.731400 603.249084,169.127426 
	C595.511902,164.449326 588.589233,158.567673 581.131287,152.840958 
z"/>
<path fill="#F2F7FA" opacity="1.000000" stroke="none" 
	d="
M448.016724,122.187027 
	C457.020294,116.741577 461.795319,108.067955 465.917328,98.862114 
	C469.030731,91.908859 472.270813,85.012321 475.595184,77.784714 
	C478.085205,78.507950 480.251862,79.137276 482.966583,79.925781 
	C481.591278,84.160522 480.349487,88.050072 479.065155,91.925507 
	C476.139008,100.754898 473.412811,109.659973 470.156464,118.366386 
	C468.623932,122.463890 469.163605,124.478508 473.391113,126.287872 
	C483.467773,130.600693 493.319122,135.440674 503.251678,140.088699 
	C504.878998,140.850235 506.456451,141.718307 507.858368,142.435532 
	C507.923828,147.271973 505.518768,149.041290 501.543793,148.027588 
	C494.197235,146.154068 486.754944,144.396118 479.706970,141.672806 
	C469.206604,137.615479 459.013733,132.762482 448.345947,127.681274 
	C448.006836,125.471992 448.011780,123.829514 448.016724,122.187027 
z"/>
<path fill="#ECF3F8" opacity="1.000000" stroke="none" 
	d="
M180.956818,146.257812 
	C174.088531,150.444641 167.569183,154.626205 160.756439,158.995926 
	C159.155670,151.406921 159.553680,145.874176 166.744949,141.135269 
	C179.056183,133.022400 190.488998,123.576546 202.217239,114.745735 
	C208.096024,120.280464 208.072769,120.258179 203.131500,125.414635 
	C200.715210,127.936134 198.657944,130.867874 195.984665,133.061188 
	C192.125244,136.227692 193.158234,138.780838 195.717239,142.171371 
	C203.319916,152.244537 210.629807,162.538681 218.280640,173.057861 
	C216.340836,174.721664 214.625168,176.193237 213.371414,177.268600 
	C202.730927,166.976395 192.018341,156.614471 180.956818,146.257812 
z"/>
<path fill="#EAF2F7" opacity="1.000000" stroke="none" 
	d="
M447.655579,122.060165 
	C448.011780,123.829514 448.006836,125.471992 448.004272,127.526443 
	C431.878113,126.002518 415.731445,124.202400 399.632172,122.047981 
	C394.803802,121.401848 392.404358,117.942711 393.157074,113.687912 
	C396.045990,97.358276 399.055176,81.049911 402.162567,63.946274 
	C405.048706,64.280792 407.690887,64.587044 410.622620,64.926849 
	C409.528961,79.015533 408.613556,92.560280 407.325775,106.069511 
	C407.031952,109.152054 408.467529,109.738525 410.696808,110.431908 
	C422.907227,114.229752 435.097351,118.092720 447.655579,122.060165 
z"/>
<path fill="#ECF3F8" opacity="1.000000" stroke="none" 
	d="
M152.962189,244.916473 
	C150.028839,249.178833 147.368759,253.196609 144.455109,257.021210 
	C141.709061,260.625763 137.800751,261.168121 134.182007,259.012329 
	C120.892548,251.095428 107.763153,242.908188 94.655571,234.691803 
	C93.867058,234.197540 93.130257,232.101807 93.515030,231.549652 
	C94.525635,230.099487 96.043922,228.287384 97.583122,228.046692 
	C103.858017,227.065430 109.296562,229.669891 114.402298,233.024841 
	C120.092720,236.763977 125.756378,240.543808 131.436539,244.298584 
	C135.366013,246.896133 138.011093,246.273346 140.748550,242.009689 
	C148.098602,230.561966 155.976456,219.453110 164.267471,208.459412 
	C164.431549,221.709030 159.060089,233.232864 152.962189,244.916473 
z"/>
<path fill="#ECF3F8" opacity="1.000000" stroke="none" 
	d="
M373.225830,100.472580 
	C372.479614,88.481804 372.666656,77.053406 377.886169,66.346947 
	C378.709320,64.658508 379.776154,63.088863 381.601990,61.825817 
	C381.601990,80.967804 381.601990,100.109795 381.601990,120.305199 
	C375.871002,114.390938 374.720184,107.593872 373.225830,100.472580 
z"/>
<path fill="#0B0B0B" opacity="1.000000" stroke="none" 
	d="
M456.448364,627.579102 
	C434.696930,585.616577 413.147095,543.966003 391.088165,501.331421 
	C377.638916,553.177185 364.447113,604.030518 351.064270,655.620361 
	C362.233795,653.869080 372.963226,652.186829 383.969818,650.461060 
	C386.834381,656.900879 389.594177,663.105225 392.950348,670.650269 
	C382.336761,672.784668 372.233917,675.168640 362.005402,676.729248 
	C356.638519,677.548096 351.012360,677.355042 345.572205,676.860535 
	C334.804901,675.881714 329.059753,669.897339 329.403351,659.120483 
	C329.639587,651.709351 330.826080,644.170166 332.742584,636.996704 
	C345.113556,590.692749 357.889832,544.497314 370.324554,498.210144 
	C373.368103,486.880890 380.643250,481.567902 391.884369,479.871613 
	C416.625793,476.138123 438.431061,466.074524 455.910278,447.845428 
	C502.475067,399.282898 491.611206,322.280548 433.811584,285.082367 
	C375.757416,247.720367 298.762421,277.198547 274.144806,339.841309 
	C271.535645,346.480621 269.654694,353.406067 267.318756,360.557465 
	C261.293304,360.557465 254.876663,360.557465 247.136368,360.557465 
	C248.635574,352.570709 249.495148,344.674377 251.633621,337.141113 
	C264.804474,290.743622 309.422852,252.985947 357.396545,247.836273 
	C403.618683,242.874619 444.618500,254.770493 475.423126,290.642334 
	C507.272217,327.730469 517.681274,370.700348 500.646301,417.801086 
	C490.160889,446.792603 468.768555,467.346069 443.495239,483.979706 
	C434.898956,489.637360 425.800446,494.531921 416.391937,500.094055 
	C450.365631,566.184753 484.477325,632.543945 518.815918,699.344482 
	C512.515991,703.327087 506.404419,707.190552 499.839752,711.340515 
	C485.352509,683.348877 471.001251,655.619934 456.448364,627.579102 
z"/>
<path fill="#0B0B0B" opacity="1.000000" stroke="none" 
	d="
M248.430939,663.210999 
	C261.432831,635.688477 274.413147,608.155762 287.442749,580.646362 
	C300.047974,554.032959 312.704437,527.443848 325.335815,500.842896 
	C325.972687,499.501678 326.585236,498.148956 327.301971,496.600983 
	C320.828186,492.334534 314.386414,488.251343 308.114044,483.922699 
	C293.799622,474.044006 280.467224,463.053223 269.584930,449.330261 
	C255.675461,431.789856 248.760040,411.669006 247.196030,388.859772 
	C253.277206,388.859772 259.231079,388.701447 265.161102,389.006256 
	C266.223999,389.060883 267.640869,390.857147 268.127289,392.140106 
	C272.196716,402.873871 276.081696,413.677582 280.036407,424.455017 
	C280.657257,426.146973 281.349030,427.812866 282.284271,430.194244 
	C288.270172,426.786957 294.006378,423.836670 299.401062,420.357025 
	C304.197662,417.263123 306.715149,412.497284 306.169189,406.717957 
	C305.528656,399.936859 304.520905,393.183502 303.474731,386.448822 
	C297.354889,347.051727 324.471649,309.552704 363.393890,303.664246 
	C368.172028,314.490509 365.296814,323.702209 355.244019,329.749207 
	C354.531342,330.177948 353.798065,330.576508 353.054291,330.948975 
	C334.627014,340.176849 324.814148,355.122528 325.102142,375.695557 
	C325.389557,396.225952 335.987976,411.130981 353.888031,420.277252 
	C360.823730,423.821198 368.964905,425.298706 376.729004,426.863861 
	C390.192352,429.577850 397.040497,435.834564 398.023743,447.482391 
	C376.969513,453.768005 351.814331,448.489899 328.095581,431.277924 
	C319.034058,438.525635 309.849152,445.872070 300.101379,453.668701 
	C309.878082,458.887024 319.196533,463.871826 328.525482,468.836945 
	C337.919189,473.836487 347.323334,478.816467 357.257263,484.088562 
	C325.251373,552.708923 293.306366,621.198730 261.120911,690.204102 
	C317.488708,711.231018 374.925323,713.772766 434.081757,703.947449 
	C418.821472,664.488098 403.692688,625.368713 388.377502,585.767395 
	C395.428162,583.006470 402.160614,580.370239 409.396149,577.536987 
	C427.614197,624.605164 445.723419,671.392212 464.206696,719.145630 
	C383.789215,742.138672 306.088928,733.548706 229.068420,703.439453 
	C235.273407,690.447266 241.059555,678.332092 247.453217,666.193726 
	C248.373016,667.918152 248.926743,669.661743 248.954712,671.413757 
	C249.061081,678.077820 248.854263,684.750000 249.104874,691.406372 
	C249.162842,692.945984 250.406448,695.603760 251.381073,695.737915 
	C254.956100,696.230103 253.919525,693.120178 253.961365,691.204773 
	C254.077774,685.874634 254.056259,680.539673 253.985687,675.207947 
	C253.922195,670.410828 255.586075,664.749634 248.430939,663.210999 
z"/>
<path fill="#080808" opacity="1.000000" stroke="none" 
	d="
M421.814331,411.806854 
	C426.997528,404.277435 431.980682,397.046570 437.226562,389.434418 
	C422.091064,386.980438 408.760986,387.432312 397.492554,399.623627 
	C388.177307,409.701813 369.622040,407.356628 358.897491,396.085419 
	C349.382965,386.086029 347.682465,371.791229 354.622162,360.146301 
	C361.730103,348.218964 374.966492,342.775421 388.643799,346.593933 
	C392.744446,347.738831 396.522522,350.030548 400.459656,351.771393 
	C411.472168,356.640686 422.490570,361.496643 434.822418,366.938446 
	C431.183380,352.200714 425.999786,340.372559 413.918549,333.115906 
	C408.107178,329.625275 401.810211,326.872009 395.537903,324.252380 
	C392.767700,323.095459 391.786957,321.778015 391.923767,318.840149 
	C392.162903,313.704773 391.990417,308.550201 391.990417,303.435272 
	C417.474274,300.365448 448.695587,325.214630 457.640289,355.505829 
	C468.765594,393.181641 446.504150,423.961426 425.373352,435.419830 
	C422.708710,431.031250 419.861511,426.723694 417.486572,422.169800 
	C416.870270,420.988098 417.366608,418.869720 418.001495,417.477936 
	C418.885132,415.540833 420.380646,413.882843 421.814331,411.806854 
z"/>
<path fill="#000000" opacity="1.000000" stroke="none" 
	d="
M248.219635,663.488464 
	C255.586075,664.749634 253.922195,670.410828 253.985687,675.207947 
	C254.056259,680.539673 254.077774,685.874634 253.961365,691.204773 
	C253.919525,693.120178 254.956100,696.230103 251.381073,695.737915 
	C250.406448,695.603760 249.162842,692.945984 249.104874,691.406372 
	C248.854263,684.750000 249.061081,678.077820 248.954712,671.413757 
	C248.926743,669.661743 248.373016,667.918152 247.657990,665.938110 
	C247.506271,665.059021 247.757294,664.412476 248.219635,663.488464 
z"/>
<path fill="#89B7D8" opacity="1.000000" stroke="none" 
	d="
M332.461487,75.361656 
	C338.971466,74.284035 341.169067,79.588585 345.636017,82.856377 
	C337.866608,87.555199 330.724945,91.955574 323.464111,96.149712 
	C322.670746,96.607971 320.829254,96.286690 320.091949,95.631485 
	C316.513550,92.451500 313.145874,89.034355 308.602478,84.635094 
	C317.170959,81.299454 324.628265,78.396378 332.461487,75.361656 
z"/>
<path fill="#88B6D8" opacity="1.000000" stroke="none" 
	d="
M89.384415,443.398071 
	C86.931320,444.838196 84.783379,446.070984 82.677979,447.279358 
	C72.834938,434.753479 72.596474,421.208313 81.852089,410.364105 
	C86.232468,411.236420 89.127892,413.028442 89.453362,418.305084 
	C89.838402,424.547455 91.556259,430.700531 92.099380,436.944275 
	C92.273102,438.941437 90.546631,441.103851 89.384415,443.398071 
z"/>
<path fill="#88B6D8" opacity="1.000000" stroke="none" 
	d="
M653.253784,452.802429 
	C654.723999,445.501862 656.181641,438.538422 658.061768,431.691040 
	C658.637573,429.593933 659.983459,427.340637 661.647156,425.976776 
	C667.322571,421.324188 673.438782,423.840973 673.919922,431.247986 
	C674.237244,436.133484 673.744324,441.221313 672.679871,446.010895 
	C671.175476,452.780579 666.265869,455.460114 659.159851,454.294067 
	C657.232300,453.977753 655.321899,453.557037 653.253784,452.802429 
z"/>
<path fill="#8FBADA" opacity="1.000000" stroke="none" 
	d="
M659.993286,369.575989 
	C660.334778,363.323181 660.651978,357.516266 661.066833,351.716309 
	C661.314453,348.254974 661.817139,345.191864 666.548157,345.011536 
	C673.583618,344.743378 677.058167,345.911957 677.841187,350.455322 
	C678.653687,355.169067 678.851562,360.035522 678.828247,364.832825 
	C678.806580,369.285767 678.138550,373.735596 677.760986,378.118866 
	C667.156799,380.971741 661.564941,378.379822 659.993286,369.575989 
z"/>
<path fill="#8EBAD9" opacity="1.000000" stroke="none" 
	d="
M86.496696,335.384216 
	C87.499619,344.017242 88.633263,352.411530 88.619415,360.803925 
	C88.610680,366.097382 85.454872,368.115112 79.798889,367.949585 
	C77.018707,367.868195 74.253540,367.273956 71.449654,366.907654 
	C70.981575,360.154510 70.226418,353.751404 70.171906,347.342316 
	C70.102913,339.229095 75.984535,334.943207 86.496696,335.384216 
z"/>
</svg>